<mxfile host="app.diagrams.net" modified="2021-04-29T22:31:42.130Z" agent="5.0 (Windows)" etag="wOp-sK4Rurhb0BYhYQW1" version="14.6.6" type="github">
  <diagram id="8xrDXkA1vdnz3JmI79Y-" name="Page-1">
    <mxGraphModel dx="1935" dy="462" grid="1" gridSize="10" guides="1" tooltips="1" connect="1" arrows="1" fold="1" page="1" pageScale="1" pageWidth="827" pageHeight="1169" math="0" shadow="0">
      <root>
        <mxCell id="0" />
        <mxCell id="1" parent="0" />
        <mxCell id="3btcct3HwffNB1VlbiI4-1" value="&lt;p style=&quot;margin: 0px ; margin-top: 4px ; margin-left: 10px ; text-align: left&quot;&gt;&lt;b&gt;ibd&lt;/b&gt; Arroseur automatisÃ©&lt;br&gt;&lt;/p&gt;" style="html=1;strokeWidth=1;shape=mxgraph.sysml.package;labelX=153;align=left;spacingLeft=10;overflow=fill;recursiveResize=0;" vertex="1" parent="1">
          <mxGeometry x="-40" y="10" width="1000" height="590" as="geometry" />
        </mxCell>
        <object label="" id="3btcct3HwffNB1VlbiI4-4">
          <mxCell style="strokeColor=inherit;fillColor=inherit;gradientColor=inherit;align=right;html=1;verticalAlign=bottom;endArrow=none;startArrow=diamondThin;startFill=1;edgeStyle=none;endFill=0;labelBackgroundColor=none;" edge="1" parent="3btcct3HwffNB1VlbiI4-1" source="3btcct3HwffNB1VlbiI4-9" target="3btcct3HwffNB1VlbiI4-7">
            <mxGeometry x="0.8954" y="2" relative="1" as="geometry">
              <mxPoint x="120" y="137.75862068965512" as="targetPoint" />
              <mxPoint as="offset" />
            </mxGeometry>
          </mxCell>
        </object>
        <mxCell id="3btcct3HwffNB1VlbiI4-6" value="" style="resizable=0;html=1;align=right;verticalAlign=top;labelBackgroundColor=none;fontSize=10" connectable="0" vertex="1" parent="3btcct3HwffNB1VlbiI4-4">
          <mxGeometry x="1" relative="1" as="geometry" />
        </mxCell>
        <mxCell id="3btcct3HwffNB1VlbiI4-8" value="2..*" style="edgeLabel;html=1;align=center;verticalAlign=middle;resizable=0;points=[];" vertex="1" connectable="0" parent="3btcct3HwffNB1VlbiI4-4">
          <mxGeometry x="0.47" y="-3" relative="1" as="geometry">
            <mxPoint x="-16" y="4" as="offset" />
          </mxGeometry>
        </mxCell>
        <mxCell id="3btcct3HwffNB1VlbiI4-7" value="&lt;p style=&quot;margin: 0px ; margin-top: 4px ; text-align: center&quot;&gt;&amp;lt;&amp;lt;block&amp;gt;&amp;gt;&lt;br&gt;&lt;b&gt;Vannes&lt;/b&gt;&lt;/p&gt;&lt;hr&gt;&lt;p style=&quot;margin: 0px ; margin-left: 8px ; text-align: left&quot;&gt;id: 1.1&lt;/p&gt;&lt;p style=&quot;margin: 0px ; margin-left: 8px ; text-align: left&quot;&gt;specs=&quot;4.8 W / 12 V / 0.4 A&quot;&lt;br&gt;pressure=0 -&amp;gt; 0.8 MPa&quot;&lt;br&gt;&lt;/p&gt;" style="shape=rect;html=1;overflow=fill;whiteSpace=wrap;" vertex="1" parent="3btcct3HwffNB1VlbiI4-1">
          <mxGeometry x="20" y="210" width="160" height="100" as="geometry" />
        </mxCell>
        <mxCell id="3btcct3HwffNB1VlbiI4-9" value="&lt;p style=&quot;margin: 0px ; margin-top: 4px ; text-align: center&quot;&gt;&amp;lt;&amp;lt;block&amp;gt;&amp;gt;&lt;br&gt;&lt;b&gt;Carte Arduino Mega&lt;br&gt;&lt;/b&gt;&lt;/p&gt;&lt;hr&gt;&lt;p style=&quot;margin: 0px ; margin-left: 8px ; text-align: left&quot;&gt;id: 1&lt;/p&gt;&lt;p style=&quot;margin: 0px ; margin-left: 8px ; text-align: left&quot;&gt;power= 5V DC&lt;br&gt;&lt;/p&gt;" style="shape=rect;html=1;overflow=fill;whiteSpace=wrap;" vertex="1" parent="3btcct3HwffNB1VlbiI4-1">
          <mxGeometry x="270" y="20" width="160" height="100" as="geometry" />
        </mxCell>
        <mxCell id="3btcct3HwffNB1VlbiI4-10" value="1" style="text;html=1;align=center;verticalAlign=middle;resizable=0;points=[];autosize=1;strokeColor=none;" vertex="1" parent="3btcct3HwffNB1VlbiI4-1">
          <mxGeometry x="430" y="100" width="20" height="20" as="geometry" />
        </mxCell>
        <mxCell id="3btcct3HwffNB1VlbiI4-11" value="&lt;p style=&quot;margin: 0px ; margin-top: 4px ; text-align: center&quot;&gt;&amp;lt;&amp;lt;block&amp;gt;&amp;gt;&lt;br&gt;&lt;b&gt;Alimentation&lt;/b&gt;&lt;br&gt;&lt;/p&gt;&lt;hr&gt;&lt;p style=&quot;margin: 0px ; margin-left: 8px ; text-align: left&quot;&gt;id: 1.2.1&lt;/p&gt;&lt;p style=&quot;margin: 0px ; margin-left: 8px ; text-align: left&quot;&gt;power=230V&lt;br&gt;&lt;/p&gt;" style="shape=rect;html=1;overflow=fill;whiteSpace=wrap;" vertex="1" parent="3btcct3HwffNB1VlbiI4-1">
          <mxGeometry x="190" y="360" width="160" height="100" as="geometry" />
        </mxCell>
        <mxCell id="3btcct3HwffNB1VlbiI4-16" value="&lt;p style=&quot;margin: 0px ; margin-top: 4px ; text-align: center&quot;&gt;&amp;lt;&amp;lt;block&amp;gt;&amp;gt;&lt;br&gt;&lt;b&gt;Transformateur abaisseur de tension&lt;/b&gt;&lt;br&gt;&lt;/p&gt;&lt;hr&gt;&lt;p style=&quot;margin: 0px ; margin-left: 8px ; text-align: left&quot;&gt;id: 1.2&lt;/p&gt;&lt;p style=&quot;margin: 0px ; margin-left: 8px ; text-align: left&quot;&gt;power=230V -&amp;gt; 5V&lt;br&gt;&lt;/p&gt;" style="shape=rect;html=1;overflow=fill;whiteSpace=wrap;" vertex="1" parent="3btcct3HwffNB1VlbiI4-1">
          <mxGeometry x="190" y="210" width="160" height="100" as="geometry" />
        </mxCell>
        <object label="" id="3btcct3HwffNB1VlbiI4-24">
          <mxCell style="strokeColor=inherit;fillColor=inherit;gradientColor=inherit;align=right;html=1;verticalAlign=bottom;endArrow=none;startArrow=diamondThin;startSize=14;startFill=1;edgeStyle=none;endFill=0;labelBackgroundColor=none;shadow=0;sketch=0;" edge="1" parent="3btcct3HwffNB1VlbiI4-1" source="3btcct3HwffNB1VlbiI4-16" target="3btcct3HwffNB1VlbiI4-11">
            <mxGeometry x="0.8954" y="2" relative="1" as="geometry">
              <mxPoint x="126.66666666666652" y="330" as="sourcePoint" />
              <mxPoint x="183.33333333333348" y="380" as="targetPoint" />
              <Array as="points" />
              <mxPoint as="offset" />
            </mxGeometry>
          </mxCell>
        </object>
        <mxCell id="3btcct3HwffNB1VlbiI4-25" value="" style="resizable=0;html=1;align=right;verticalAlign=top;labelBackgroundColor=none;fontSize=10" connectable="0" vertex="1" parent="3btcct3HwffNB1VlbiI4-24">
          <mxGeometry x="1" relative="1" as="geometry" />
        </mxCell>
        <mxCell id="3btcct3HwffNB1VlbiI4-26" value="1" style="edgeLabel;html=1;align=center;verticalAlign=middle;resizable=0;points=[];" vertex="1" connectable="0" parent="3btcct3HwffNB1VlbiI4-24">
          <mxGeometry x="0.47" y="-3" relative="1" as="geometry">
            <mxPoint x="-16" y="4" as="offset" />
          </mxGeometry>
        </mxCell>
        <object label="" id="3btcct3HwffNB1VlbiI4-27">
          <mxCell style="strokeColor=inherit;fillColor=inherit;gradientColor=inherit;align=right;html=1;verticalAlign=bottom;endArrow=none;startArrow=diamondThin;startSize=14;startFill=1;edgeStyle=none;endFill=0;labelBackgroundColor=none;shadow=0;sketch=0;" edge="1" parent="3btcct3HwffNB1VlbiI4-1" source="3btcct3HwffNB1VlbiI4-9" target="3btcct3HwffNB1VlbiI4-16">
            <mxGeometry x="0.8954" y="2" relative="1" as="geometry">
              <mxPoint x="500" y="260" as="sourcePoint" />
              <mxPoint x="500" y="310" as="targetPoint" />
              <Array as="points" />
              <mxPoint as="offset" />
            </mxGeometry>
          </mxCell>
        </object>
        <mxCell id="3btcct3HwffNB1VlbiI4-28" value="" style="resizable=0;html=1;align=right;verticalAlign=top;labelBackgroundColor=none;fontSize=10" connectable="0" vertex="1" parent="3btcct3HwffNB1VlbiI4-27">
          <mxGeometry x="1" relative="1" as="geometry" />
        </mxCell>
        <mxCell id="3btcct3HwffNB1VlbiI4-29" value="1" style="edgeLabel;html=1;align=center;verticalAlign=middle;resizable=0;points=[];" vertex="1" connectable="0" parent="3btcct3HwffNB1VlbiI4-27">
          <mxGeometry x="0.47" y="-3" relative="1" as="geometry">
            <mxPoint x="-16" y="4" as="offset" />
          </mxGeometry>
        </mxCell>
        <mxCell id="3btcct3HwffNB1VlbiI4-30" value="&lt;p style=&quot;margin: 0px ; margin-top: 4px ; text-align: center&quot;&gt;&amp;lt;&amp;lt;block&amp;gt;&amp;gt;&lt;br&gt;&lt;b&gt;Module Bluetooth&lt;/b&gt;&lt;br&gt;&lt;/p&gt;&lt;hr&gt;&lt;p style=&quot;margin: 0px ; margin-left: 8px ; text-align: left&quot;&gt;id: 1.3&lt;/p&gt;&lt;p style=&quot;margin: 0px ; margin-left: 8px ; text-align: left&quot;&gt;reference: HC-06&lt;/p&gt;&lt;p style=&quot;margin: 0px ; margin-left: 8px ; text-align: left&quot;&gt;power: 3.3 - 5V&lt;br&gt;&lt;/p&gt;&lt;p style=&quot;margin: 0px ; margin-left: 8px ; text-align: left&quot;&gt;&lt;br&gt;&lt;/p&gt;" style="shape=rect;html=1;overflow=fill;whiteSpace=wrap;" vertex="1" parent="3btcct3HwffNB1VlbiI4-1">
          <mxGeometry x="374" y="210" width="160" height="100" as="geometry" />
        </mxCell>
        <object label="" id="3btcct3HwffNB1VlbiI4-31">
          <mxCell style="strokeColor=inherit;fillColor=inherit;gradientColor=inherit;align=right;html=1;verticalAlign=bottom;endArrow=none;startArrow=diamondThin;startSize=14;startFill=1;edgeStyle=none;endFill=0;labelBackgroundColor=none;shadow=0;sketch=0;" edge="1" parent="3btcct3HwffNB1VlbiI4-1" source="3btcct3HwffNB1VlbiI4-9" target="3btcct3HwffNB1VlbiI4-30">
            <mxGeometry x="0.8954" y="2" relative="1" as="geometry">
              <mxPoint x="533.9973684210524" y="120" as="sourcePoint" />
              <mxPoint x="496.1026315789475" y="210" as="targetPoint" />
              <Array as="points" />
              <mxPoint as="offset" />
            </mxGeometry>
          </mxCell>
        </object>
        <mxCell id="3btcct3HwffNB1VlbiI4-32" value="" style="resizable=0;html=1;align=right;verticalAlign=top;labelBackgroundColor=none;fontSize=10" connectable="0" vertex="1" parent="3btcct3HwffNB1VlbiI4-31">
          <mxGeometry x="1" relative="1" as="geometry" />
        </mxCell>
        <mxCell id="3btcct3HwffNB1VlbiI4-33" value="1" style="edgeLabel;html=1;align=center;verticalAlign=middle;resizable=0;points=[];" vertex="1" connectable="0" parent="3btcct3HwffNB1VlbiI4-31">
          <mxGeometry x="0.47" y="-3" relative="1" as="geometry">
            <mxPoint x="-16" y="4" as="offset" />
          </mxGeometry>
        </mxCell>
        <mxCell id="3btcct3HwffNB1VlbiI4-56" value="&lt;p style=&quot;margin: 0px ; margin-top: 4px ; text-align: center&quot;&gt;&amp;lt;&amp;lt;block&amp;gt;&amp;gt;&lt;br&gt;&lt;b&gt;Capteurs&lt;/b&gt;&lt;br&gt;&lt;/p&gt;&lt;hr&gt;&lt;p style=&quot;margin: 0px ; margin-left: 8px ; text-align: left&quot;&gt;id: 1.4&lt;/p&gt;&lt;p style=&quot;margin: 0px ; margin-left: 8px ; text-align: left&quot;&gt;&lt;br&gt;&lt;/p&gt;" style="shape=rect;html=1;overflow=fill;whiteSpace=wrap;" vertex="1" parent="3btcct3HwffNB1VlbiI4-1">
          <mxGeometry x="540" y="210" width="160" height="100" as="geometry" />
        </mxCell>
        <mxCell id="3btcct3HwffNB1VlbiI4-57" value="&lt;p style=&quot;margin: 0px ; margin-top: 4px ; text-align: center&quot;&gt;&amp;lt;&amp;lt;block&amp;gt;&amp;gt;&lt;br&gt;&lt;b&gt;Capteur Temp-Hum air&lt;/b&gt;&lt;br&gt;&lt;/p&gt;&lt;hr&gt;&lt;p style=&quot;margin: 0px ; margin-left: 8px ; text-align: left&quot;&gt;id: 1.4.1&lt;/p&gt;&lt;p style=&quot;margin: 0px ; margin-left: 8px ; text-align: left&quot;&gt;unitÃ©s= temp: Â°C&lt;/p&gt;&lt;p style=&quot;margin: 0px ; margin-left: 8px ; text-align: left&quot;&gt;hum: %rh&lt;/p&gt;" style="shape=rect;html=1;overflow=fill;whiteSpace=wrap;" vertex="1" parent="3btcct3HwffNB1VlbiI4-1">
          <mxGeometry x="440" y="350" width="110" height="110" as="geometry" />
        </mxCell>
        <mxCell id="3btcct3HwffNB1VlbiI4-58" value="&lt;p style=&quot;margin: 0px ; margin-top: 4px ; text-align: center&quot;&gt;&amp;lt;&amp;lt;block&amp;gt;&amp;gt;&lt;br&gt;&lt;b&gt;Capteur Humi Sol&lt;/b&gt;&lt;br&gt;&lt;/p&gt;&lt;hr&gt;&lt;p style=&quot;margin: 0px ; margin-left: 8px ; text-align: left&quot;&gt;id: 1.4.1&lt;/p&gt;&lt;p style=&quot;margin: 0px ; margin-left: 8px ; text-align: left&quot;&gt;&lt;br&gt;&lt;/p&gt;" style="shape=rect;html=1;overflow=fill;whiteSpace=wrap;" vertex="1" parent="3btcct3HwffNB1VlbiI4-1">
          <mxGeometry x="580" y="350" width="110" height="110" as="geometry" />
        </mxCell>
        <object label="" id="3btcct3HwffNB1VlbiI4-59">
          <mxCell style="strokeColor=inherit;fillColor=inherit;gradientColor=inherit;align=right;html=1;verticalAlign=bottom;endArrow=none;startArrow=diamondThin;startSize=14;startFill=1;edgeStyle=none;endFill=0;labelBackgroundColor=none;shadow=0;sketch=0;" edge="1" parent="3btcct3HwffNB1VlbiI4-1" source="3btcct3HwffNB1VlbiI4-56" target="3btcct3HwffNB1VlbiI4-57">
            <mxGeometry x="0.8954" y="2" relative="1" as="geometry">
              <mxPoint x="240" y="330" as="sourcePoint" />
              <mxPoint x="240" y="380" as="targetPoint" />
              <Array as="points" />
              <mxPoint as="offset" />
            </mxGeometry>
          </mxCell>
        </object>
        <mxCell id="3btcct3HwffNB1VlbiI4-60" value="" style="resizable=0;html=1;align=right;verticalAlign=top;labelBackgroundColor=none;fontSize=10" connectable="0" vertex="1" parent="3btcct3HwffNB1VlbiI4-59">
          <mxGeometry x="1" relative="1" as="geometry" />
        </mxCell>
        <mxCell id="3btcct3HwffNB1VlbiI4-61" value="1" style="edgeLabel;html=1;align=center;verticalAlign=middle;resizable=0;points=[];" vertex="1" connectable="0" parent="3btcct3HwffNB1VlbiI4-59">
          <mxGeometry x="0.47" y="-3" relative="1" as="geometry">
            <mxPoint x="-16" y="4" as="offset" />
          </mxGeometry>
        </mxCell>
        <object label="" id="3btcct3HwffNB1VlbiI4-62">
          <mxCell style="strokeColor=inherit;fillColor=inherit;gradientColor=inherit;align=right;html=1;verticalAlign=bottom;endArrow=none;startArrow=diamondThin;startSize=14;startFill=1;edgeStyle=none;endFill=0;labelBackgroundColor=none;shadow=0;sketch=0;" edge="1" parent="3btcct3HwffNB1VlbiI4-1" source="3btcct3HwffNB1VlbiI4-56" target="3btcct3HwffNB1VlbiI4-58">
            <mxGeometry x="0.8954" y="2" relative="1" as="geometry">
              <mxPoint x="546.8965517241381" y="330" as="sourcePoint" />
              <mxPoint x="512.4137931034484" y="370" as="targetPoint" />
              <Array as="points" />
              <mxPoint as="offset" />
            </mxGeometry>
          </mxCell>
        </object>
        <mxCell id="3btcct3HwffNB1VlbiI4-63" value="" style="resizable=0;html=1;align=right;verticalAlign=top;labelBackgroundColor=none;fontSize=10" connectable="0" vertex="1" parent="3btcct3HwffNB1VlbiI4-62">
          <mxGeometry x="1" relative="1" as="geometry" />
        </mxCell>
        <mxCell id="3btcct3HwffNB1VlbiI4-64" value="1" style="edgeLabel;html=1;align=center;verticalAlign=middle;resizable=0;points=[];" vertex="1" connectable="0" parent="3btcct3HwffNB1VlbiI4-62">
          <mxGeometry x="0.47" y="-3" relative="1" as="geometry">
            <mxPoint x="-16" y="4" as="offset" />
          </mxGeometry>
        </mxCell>
        <mxCell id="3btcct3HwffNB1VlbiI4-65" value="&lt;div&gt;Valeurs:&lt;/div&gt;&lt;div&gt;Sol sec: 0-300&lt;/div&gt;&lt;div&gt;sol humide: 300- 700&lt;/div&gt;&lt;div&gt;immergÃ©: 700-900&lt;br&gt;&lt;/div&gt;&lt;div&gt;&lt;br&gt;&lt;/div&gt;" style="shape=note;size=15;align=left;spacingLeft=10;html=1;whiteSpace=wrap;" vertex="1" parent="3btcct3HwffNB1VlbiI4-1">
          <mxGeometry x="430" y="500" width="150" height="75" as="geometry" />
        </mxCell>
        <mxCell id="3btcct3HwffNB1VlbiI4-67" value="" style="edgeStyle=none;endArrow=none;exitX=0.8;exitY=0;dashed=1;html=1;shadow=0;" edge="1" source="3btcct3HwffNB1VlbiI4-65" parent="3btcct3HwffNB1VlbiI4-1" target="3btcct3HwffNB1VlbiI4-58">
          <mxGeometry x="1" relative="1" as="geometry">
            <mxPoint x="610" y="495" as="targetPoint" />
          </mxGeometry>
        </mxCell>
        <object label="" id="3btcct3HwffNB1VlbiI4-68">
          <mxCell style="strokeColor=inherit;fillColor=inherit;gradientColor=inherit;align=right;html=1;verticalAlign=bottom;endArrow=none;startArrow=diamondThin;startSize=14;startFill=1;edgeStyle=none;endFill=0;labelBackgroundColor=none;shadow=0;sketch=0;" edge="1" parent="3btcct3HwffNB1VlbiI4-1" source="3btcct3HwffNB1VlbiI4-9" target="3btcct3HwffNB1VlbiI4-56">
            <mxGeometry x="0.8954" y="2" relative="1" as="geometry">
              <mxPoint x="347.3684210526317" y="140" as="sourcePoint" />
              <mxPoint x="396.6315789473683" y="230" as="targetPoint" />
              <Array as="points" />
              <mxPoint as="offset" />
            </mxGeometry>
          </mxCell>
        </object>
        <mxCell id="3btcct3HwffNB1VlbiI4-69" value="" style="resizable=0;html=1;align=right;verticalAlign=top;labelBackgroundColor=none;fontSize=10" connectable="0" vertex="1" parent="3btcct3HwffNB1VlbiI4-68">
          <mxGeometry x="1" relative="1" as="geometry" />
        </mxCell>
        <mxCell id="3btcct3HwffNB1VlbiI4-70" value="1" style="edgeLabel;html=1;align=center;verticalAlign=middle;resizable=0;points=[];" vertex="1" connectable="0" parent="3btcct3HwffNB1VlbiI4-68">
          <mxGeometry x="0.47" y="-3" relative="1" as="geometry">
            <mxPoint x="-16" y="4" as="offset" />
          </mxGeometry>
        </mxCell>
        <mxCell id="3btcct3HwffNB1VlbiI4-71" value="&lt;p style=&quot;margin: 0px ; margin-top: 4px ; text-align: center&quot;&gt;&amp;lt;&amp;lt;block&amp;gt;&amp;gt;&lt;br&gt;&lt;b&gt;Relais&lt;/b&gt;&lt;br&gt;&lt;/p&gt;&lt;hr&gt;&lt;p style=&quot;margin: 0px ; margin-left: 8px ; text-align: left&quot;&gt;id: 1.5&lt;/p&gt;&lt;p style=&quot;margin: 0px ; margin-left: 8px ; text-align: left&quot;&gt;Pmax= 230V 3A&lt;br&gt;&lt;/p&gt;" style="shape=rect;html=1;overflow=fill;whiteSpace=wrap;" vertex="1" parent="3btcct3HwffNB1VlbiI4-1">
          <mxGeometry x="710" y="210" width="160" height="100" as="geometry" />
        </mxCell>
        <mxCell id="3btcct3HwffNB1VlbiI4-72" value="&lt;div&gt;RÃ©fÃ©rence: https://composant-electronique.fr/relais-12v-202n-1ac-f-c12dc&lt;font style=&quot;font-size: 12px&quot;&gt;&lt;span itemprop=&quot;description&quot;&gt;&lt;span style=&quot;font-weight: normal&quot;&gt;&lt;br&gt;&lt;/span&gt;&lt;/span&gt;&lt;/font&gt;&lt;/div&gt;&lt;div&gt;&lt;font style=&quot;font-size: 12px&quot;&gt;&lt;span itemprop=&quot;description&quot;&gt;&lt;span style=&quot;font-weight: normal&quot;&gt;202N-1AC-F-C12DC&lt;/span&gt;&lt;/span&gt;&lt;/font&gt;&lt;/div&gt;" style="shape=note;size=15;align=left;spacingLeft=10;html=1;whiteSpace=wrap;" vertex="1" parent="3btcct3HwffNB1VlbiI4-1">
          <mxGeometry x="700" y="470" width="200" height="90" as="geometry" />
        </mxCell>
        <mxCell id="3btcct3HwffNB1VlbiI4-73" value="" style="edgeStyle=none;endArrow=none;dashed=1;html=1;shadow=0;" edge="1" parent="3btcct3HwffNB1VlbiI4-1" source="3btcct3HwffNB1VlbiI4-71" target="3btcct3HwffNB1VlbiI4-72">
          <mxGeometry x="1" relative="1" as="geometry">
            <mxPoint x="555.7894736842104" y="480" as="targetPoint" />
            <mxPoint x="520" y="520" as="sourcePoint" />
          </mxGeometry>
        </mxCell>
        <object label="" id="3btcct3HwffNB1VlbiI4-74">
          <mxCell style="strokeColor=inherit;fillColor=inherit;gradientColor=inherit;align=right;html=1;verticalAlign=bottom;endArrow=none;startArrow=diamondThin;startSize=14;startFill=1;edgeStyle=none;endFill=0;labelBackgroundColor=none;shadow=0;sketch=0;entryX=0.25;entryY=0;entryDx=0;entryDy=0;" edge="1" parent="3btcct3HwffNB1VlbiI4-1" source="3btcct3HwffNB1VlbiI4-9" target="3btcct3HwffNB1VlbiI4-71">
            <mxGeometry x="0.8954" y="2" relative="1" as="geometry">
              <mxPoint x="1040" y="230" as="sourcePoint" />
              <mxPoint x="599.310344827586" y="370" as="targetPoint" />
              <Array as="points" />
              <mxPoint as="offset" />
            </mxGeometry>
          </mxCell>
        </object>
        <mxCell id="3btcct3HwffNB1VlbiI4-75" value="" style="resizable=0;html=1;align=right;verticalAlign=top;labelBackgroundColor=none;fontSize=10" connectable="0" vertex="1" parent="3btcct3HwffNB1VlbiI4-74">
          <mxGeometry x="1" relative="1" as="geometry" />
        </mxCell>
        <mxCell id="3btcct3HwffNB1VlbiI4-76" value="2..*" style="edgeLabel;html=1;align=center;verticalAlign=middle;resizable=0;points=[];" vertex="1" connectable="0" parent="3btcct3HwffNB1VlbiI4-74">
          <mxGeometry x="0.47" y="-3" relative="1" as="geometry">
            <mxPoint x="86" y="17" as="offset" />
          </mxGeometry>
        </mxCell>
      </root>
    </mxGraphModel>
  </diagram>
</mxfile>
